RobotoExtremo-opszmax-wghtmin-wdthmin.ufo
<glyph name="numbersign" format="2">
  <advance width="866"/>
  <unicode hex="0023"/>
  <outline>
    <contour>
      <point x="211" y="-20" type="line"/>
      <point x="218" y="-20" type="line"/>
      <point x="429" y="1476" type="line"/>
      <point x="422" y="1476" type="line"/>
    </contour>
    <contour>
      <point x="433" y="-20" type="line"/>
      <point x="441" y="-20" type="line"/>
      <point x="651" y="1476" type="line"/>
      <point x="645" y="1476" type="line"/>
    </contour>
    <contour>
      <point x="70" y="481" type="line"/>
      <point x="724" y="481" type="line"/>
      <point x="724" y="487" type="line"/>
      <point x="70" y="487" type="line"/>
    </contour>
    <contour>
      <point x="143" y="969" type="line"/>
      <point x="796" y="969" type="line"/>
      <point x="796" y="975" type="line"/>
      <point x="143" y="975" type="line"/>
    </contour>
  </outline>
</glyph>
<glyph name="percent" format="2">
  <advance width="833"/>
  <unicode hex="0025"/>
  <guideline x="278" y="655" angle="90" identifier="i2i5nlfSc7"/>
  <outline>
    <contour>
      <point x="70" y="945" type="line" smooth="yes"/>
      <point x="70" y="806"/>
      <point x="129" y="666.0"/>
      <point x="193.0" y="666.0" type="qcurve" smooth="yes"/>
      <point x="257" y="666.0"/>
      <point x="316" y="806"/>
      <point x="316" y="945" type="qcurve" smooth="yes"/>
      <point x="316" y="1207" type="line" smooth="yes"/>
      <point x="316.0" y="1361.0"/>
      <point x="258" y="1482.0"/>
      <point x="193.0" y="1482.0" type="qcurve" smooth="yes"/>
      <point x="128" y="1482.0"/>
      <point x="70" y="1361.0"/>
      <point x="70" y="1207" type="qcurve" smooth="yes"/>
    </contour>
    <contour>
      <point x="76" y="937" type="qcurve" smooth="yes"/>
      <point x="76" y="1208" type="line" smooth="yes"/>
      <point x="76" y="1357.0"/>
      <point x="130" y="1476.0"/>
      <point x="193.0" y="1476.0" type="qcurve" smooth="yes"/>
      <point x="256" y="1476.0"/>
      <point x="310.0" y="1357.0"/>
      <point x="310" y="1208" type="qcurve" smooth="yes"/>
      <point x="310" y="937" type="line" smooth="yes"/>
      <point x="310" y="811"/>
      <point x="255" y="672.0"/>
      <point x="193.0" y="672.0" type="qcurve" smooth="yes"/>
      <point x="131" y="672.0"/>
      <point x="76" y="811"/>
    </contour>
    <contour>
      <point x="153" y="15" type="line"/>
      <point x="159" y="13" type="line"/>
      <point x="676" y="1437" type="line"/>
      <point x="668" y="1437" type="line"/>
    </contour>
    <contour>
      <point x="517" y="258" type="line" smooth="yes"/>
      <point x="517" y="119"/>
      <point x="576" y="-21"/>
      <point x="640" y="-21" type="qcurve" smooth="yes"/>
      <point x="704" y="-21"/>
      <point x="763" y="119"/>
      <point x="763" y="258" type="qcurve" smooth="yes"/>
      <point x="763" y="520" type="line" smooth="yes"/>
      <point x="763.0" y="674.0"/>
      <point x="705" y="795"/>
      <point x="640" y="795" type="qcurve" smooth="yes"/>
      <point x="575" y="795"/>
      <point x="517.0" y="674.0"/>
      <point x="517" y="520" type="qcurve" smooth="yes"/>
    </contour>
    <contour>
      <point x="523" y="250" type="qcurve" smooth="yes"/>
      <point x="523" y="521" type="line" smooth="yes"/>
      <point x="523.0" y="670.0"/>
      <point x="577" y="789"/>
      <point x="640" y="789" type="qcurve" smooth="yes"/>
      <point x="703" y="789"/>
      <point x="757.0" y="670.0"/>
      <point x="757" y="521" type="qcurve" smooth="yes"/>
      <point x="757" y="250" type="line" smooth="yes"/>
      <point x="757" y="124"/>
      <point x="702" y="-15"/>
      <point x="640" y="-15" type="qcurve" smooth="yes"/>
      <point x="578" y="-15"/>
      <point x="523" y="124"/>
    </contour>
  </outline>
</glyph>
<glyph name="ampersand" format="2">
  <advance width="685"/>
  <unicode hex="0026"/>
  <outline>
    <contour>
      <point x="90" y="344" type="qcurve" smooth="yes"/>
      <point x="90" y="173"/>
      <point x="209" y="-20"/>
      <point x="311" y="-20" type="qcurve" smooth="yes"/>
      <point x="470" y="-20"/>
      <point x="595" y="370"/>
      <point x="595" y="674" type="qcurve"/>
      <point x="590" y="674" type="line"/>
      <point x="590" y="376"/>
      <point x="467" y="-14"/>
      <point x="312" y="-14" type="qcurve" smooth="yes"/>
      <point x="212" y="-14"/>
      <point x="96" y="176"/>
      <point x="96" y="344" type="qcurve" smooth="yes"/>
      <point x="96" y="472"/>
      <point x="165" y="648"/>
      <point x="263" y="763" type="qcurve" smooth="yes"/>
      <point x="356" y="873" type="line" smooth="yes"/>
      <point x="408" y="934"/>
      <point x="457" y="1102"/>
      <point x="457" y="1196" type="qcurve" smooth="yes"/>
      <point x="457" y="1313"/>
      <point x="388" y="1486"/>
      <point x="316" y="1486" type="qcurve" smooth="yes"/>
      <point x="254" y="1486"/>
      <point x="170" y="1326"/>
      <point x="170" y="1153" type="qcurve" smooth="yes"/>
      <point x="170" y="1061"/>
      <point x="196" y="924"/>
      <point x="266" y="774" type="qcurve" smooth="yes"/>
      <point x="626" y="0" type="line"/>
      <point x="635" y="0" type="line"/>
      <point x="270" y="777" type="line" smooth="yes"/>
      <point x="202" y="923"/>
      <point x="176" y="1063"/>
      <point x="176" y="1153" type="qcurve" smooth="yes"/>
      <point x="176" y="1323"/>
      <point x="256" y="1480"/>
      <point x="316" y="1480" type="qcurve" smooth="yes"/>
      <point x="386" y="1480"/>
      <point x="451" y="1310"/>
      <point x="451" y="1195" type="qcurve" smooth="yes"/>
      <point x="451" y="1103"/>
      <point x="402" y="937"/>
      <point x="352" y="877" type="qcurve" smooth="yes"/>
      <point x="259" y="767" type="line" smooth="yes"/>
      <point x="158" y="647"/>
      <point x="90" y="474"/>
    </contour>
  </outline>
</glyph>
<glyph name="parenright" format="2">
  <advance width="367"/>
  <unicode hex="0029"/>
  <outline>
    <contour>
      <point x="20" y="-436" type="line"/>
      <point x="197" y="-363"/>
      <point x="297" y="129"/>
      <point x="297" y="515" type="qcurve" smooth="yes"/>
      <point x="297" y="525" type="line" smooth="yes"/>
      <point x="297" y="911"/>
      <point x="197" y="1403"/>
      <point x="20" y="1476" type="qcurve"/>
      <point x="20" y="1470" type="line"/>
      <point x="195" y="1396"/>
      <point x="291" y="900"/>
      <point x="291" y="532" type="qcurve" smooth="yes"/>
      <point x="291" y="508" type="line" smooth="yes"/>
      <point x="291" y="140"/>
      <point x="195" y="-356"/>
      <point x="20" y="-430" type="qcurve"/>
    </contour>
  </outline>
</glyph>
<glyph name="zero" format="2">
  <advance width="594"/>
  <unicode hex="0030"/>
  <outline>
    <contour>
      <point x="72" y="309" type="line" smooth="yes"/>
      <point x="72" y="151"/>
      <point x="190" y="-10"/>
      <point x="297" y="-10" type="qcurve" smooth="yes"/>
      <point x="404" y="-10"/>
      <point x="522" y="151"/>
      <point x="522" y="309" type="qcurve" smooth="yes"/>
      <point x="522" y="1152" type="line" smooth="yes"/>
      <point x="522" y="1308"/>
      <point x="404" y="1467"/>
      <point x="297" y="1467" type="qcurve" smooth="yes"/>
      <point x="190" y="1467"/>
      <point x="72" y="1308"/>
      <point x="72" y="1152" type="qcurve" smooth="yes"/>
    </contour>
    <contour>
      <point x="78" y="311" type="qcurve" smooth="yes"/>
      <point x="78" y="1149" type="line" smooth="yes"/>
      <point x="78" y="1301"/>
      <point x="193" y="1461"/>
      <point x="297" y="1461" type="qcurve" smooth="yes"/>
      <point x="401" y="1461"/>
      <point x="516" y="1301"/>
      <point x="516" y="1149" type="qcurve" smooth="yes"/>
      <point x="516" y="311" type="line" smooth="yes"/>
      <point x="516" y="158"/>
      <point x="402" y="-4"/>
      <point x="297" y="-4" type="qcurve" smooth="yes"/>
      <point x="192" y="-4"/>
      <point x="78" y="158"/>
    </contour>
  </outline>
</glyph>
<glyph name="one" format="2">
  <advance width="370"/>
  <unicode hex="0031"/>
  <outline>
    <contour>
      <point x="217" y="0" type="line"/>
      <point x="223" y="0" type="line"/>
      <point x="223" y="1456" type="line"/>
      <point x="217" y="1456" type="line"/>
      <point x="13" y="1372" type="line"/>
      <point x="16" y="1364" type="line"/>
      <point x="217" y="1449" type="line"/>
    </contour>
  </outline>
</glyph>
<glyph name="five" format="2">
  <advance width="533"/>
  <unicode hex="0035"/>
  <outline>
    <contour>
      <point x="70" y="370" type="line" smooth="yes"/>
      <point x="70" y="152"/>
      <point x="160" y="-20"/>
      <point x="270" y="-20" type="qcurve" smooth="yes"/>
      <point x="376" y="-20"/>
      <point x="463" y="200"/>
      <point x="463" y="465" type="qcurve" smooth="yes"/>
      <point x="463" y="672"/>
      <point x="408" y="913"/>
      <point x="312" y="913" type="qcurve" smooth="yes"/>
      <point x="281" y="913"/>
      <point x="192" y="852"/>
      <point x="127" y="745" type="qcurve"/>
      <point x="173" y="1450" type="line"/>
      <point x="441" y="1450" type="line"/>
      <point x="441" y="1456" type="line"/>
      <point x="168" y="1456" type="line"/>
      <point x="121" y="737" type="line"/>
      <point x="126" y="735" type="line"/>
      <point x="191" y="843"/>
      <point x="279" y="907"/>
      <point x="310" y="907" type="qcurve" smooth="yes"/>
      <point x="404" y="907"/>
      <point x="457" y="676"/>
      <point x="457" y="465" type="qcurve" smooth="yes"/>
      <point x="457" y="205"/>
      <point x="373" y="-14"/>
      <point x="272" y="-14" type="qcurve" smooth="yes"/>
      <point x="166" y="-14"/>
      <point x="76" y="149"/>
      <point x="76" y="370" type="qcurve" smooth="yes"/>
      <point x="76" y="390" type="line"/>
      <point x="70" y="390" type="line"/>
    </contour>
  </outline>
</glyph>
<glyph name="six" format="2">
  <advance width="557"/>
  <unicode hex="0036"/>
  <outline>
    <contour>
      <point x="72" y="614" type="line" smooth="yes"/>
      <point x="72" y="231"/>
      <point x="156" y="-20"/>
      <point x="282" y="-20" type="qcurve" smooth="yes"/>
      <point x="399" y="-20"/>
      <point x="485" y="219"/>
      <point x="485" y="455" type="qcurve" smooth="yes"/>
      <point x="485" y="672"/>
      <point x="415" y="872"/>
      <point x="310" y="872" type="qcurve" smooth="yes"/>
      <point x="173" y="872"/>
      <point x="74" y="595"/>
      <point x="74" y="460" type="qcurve"/>
      <point x="78" y="460" type="line"/>
      <point x="78" y="591"/>
      <point x="176" y="866"/>
      <point x="308" y="866" type="qcurve" smooth="yes"/>
      <point x="412" y="866"/>
      <point x="479" y="670"/>
      <point x="479" y="455" type="qcurve" smooth="yes"/>
      <point x="479" y="222"/>
      <point x="396" y="-14"/>
      <point x="287" y="-14" type="qcurve" smooth="yes"/>
      <point x="160" y="-14"/>
      <point x="78" y="235"/>
      <point x="78" y="614" type="qcurve" smooth="yes"/>
      <point x="78" y="634" type="line" smooth="yes"/>
      <point x="78" y="1098"/>
      <point x="271" y="1460"/>
      <point x="402" y="1460" type="qcurve" smooth="yes"/>
      <point x="421" y="1460" type="line"/>
      <point x="421" y="1466" type="line"/>
      <point x="402" y="1466" type="line" smooth="yes"/>
      <point x="266" y="1466"/>
      <point x="72" y="1099"/>
      <point x="72" y="644" type="qcurve" smooth="yes"/>
    </contour>
  </outline>
</glyph>
<glyph name="eight" format="2">
  <advance width="833"/>
  <unicode hex="0038"/>
  <outline>
    <contour>
      <point x="37" y="377" type="qcurve" smooth="yes"/>
      <point x="37" y="183"/>
      <point x="256" y="-20"/>
      <point x="418" y="-20" type="qcurve" smooth="yes"/>
      <point x="578" y="-20"/>
      <point x="797" y="183"/>
      <point x="797" y="377" type="qcurve" smooth="yes"/>
      <point x="797" y="528"/>
      <point x="671" y="717"/>
      <point x="569" y="746" type="qcurve"/>
      <point x="569" y="750" type="line"/>
      <point x="649" y="782"/>
      <point x="754" y="958"/>
      <point x="754" y="1096" type="qcurve" smooth="yes"/>
      <point x="754" y="1272"/>
      <point x="571" y="1476"/>
      <point x="418" y="1476" type="qcurve" smooth="yes"/>
      <point x="264" y="1476"/>
      <point x="80" y="1282"/>
      <point x="80" y="1096" type="qcurve" smooth="yes"/>
      <point x="80" y="966"/>
      <point x="178" y="784"/>
      <point x="265" y="747" type="qcurve"/>
      <point x="265" y="743" type="line"/>
      <point x="164" y="714"/>
      <point x="37" y="525"/>
    </contour>
    <contour>
      <point x="149" y="380" type="qcurve" smooth="yes"/>
      <point x="149" y="523"/>
      <point x="294" y="698"/>
      <point x="417" y="698" type="qcurve" smooth="yes"/>
      <point x="540" y="698"/>
      <point x="684" y="523"/>
      <point x="684" y="379" type="qcurve" smooth="yes"/>
      <point x="684" y="234"/>
      <point x="540" y="74"/>
      <point x="417" y="74" type="qcurve" smooth="yes"/>
      <point x="294" y="74"/>
      <point x="149" y="233"/>
    </contour>
    <contour>
      <point x="189" y="1094" type="qcurve" smooth="yes"/>
      <point x="189" y="1237"/>
      <point x="304" y="1382"/>
      <point x="417" y="1382" type="qcurve" smooth="yes"/>
      <point x="529" y="1382"/>
      <point x="645" y="1229"/>
      <point x="645" y="1094" type="qcurve" smooth="yes"/>
      <point x="645" y="961"/>
      <point x="521" y="792"/>
      <point x="417" y="792" type="qcurve" smooth="yes"/>
      <point x="313" y="792"/>
      <point x="189" y="961"/>
    </contour>
  </outline>
</glyph>
<glyph name="nine" format="2">
  <advance width="557"/>
  <unicode hex="0039"/>
  <outline>
    <contour>
      <point x="72" y="991" type="qcurve" smooth="yes"/>
      <point x="72" y="774"/>
      <point x="142" y="574"/>
      <point x="247" y="574" type="qcurve" smooth="yes"/>
      <point x="384" y="574"/>
      <point x="483" y="851"/>
      <point x="483" y="986" type="qcurve"/>
      <point x="479" y="986" type="line"/>
      <point x="479" y="855"/>
      <point x="381" y="580"/>
      <point x="249" y="580" type="qcurve" smooth="yes"/>
      <point x="145" y="580"/>
      <point x="78" y="776"/>
      <point x="78" y="991" type="qcurve" smooth="yes"/>
      <point x="78" y="1224"/>
      <point x="161" y="1460"/>
      <point x="270" y="1460" type="qcurve" smooth="yes"/>
      <point x="397" y="1460"/>
      <point x="479" y="1211"/>
      <point x="479" y="832" type="qcurve" smooth="yes"/>
      <point x="479" y="812" type="line" smooth="yes"/>
      <point x="479" y="348"/>
      <point x="286" y="-14"/>
      <point x="155" y="-14" type="qcurve" smooth="yes"/>
      <point x="136" y="-14" type="line"/>
      <point x="136" y="-20" type="line"/>
      <point x="155" y="-20" type="line" smooth="yes"/>
      <point x="291" y="-20"/>
      <point x="485" y="347"/>
      <point x="485" y="802" type="qcurve" smooth="yes"/>
      <point x="485" y="832" type="line" smooth="yes"/>
      <point x="485" y="1215"/>
      <point x="401" y="1466"/>
      <point x="275" y="1466" type="qcurve" smooth="yes"/>
      <point x="158" y="1466"/>
      <point x="72" y="1227"/>
    </contour>
  </outline>
</glyph>
<glyph name="colon" format="2">
  <advance width="152"/>
  <unicode hex="003A"/>
  <outline>
    <contour>
      <point x="50" y="16" type="qcurve" smooth="yes"/>
      <point x="50" y="4"/>
      <point x="62" y="-10"/>
      <point x="75" y="-10" type="qcurve" smooth="yes"/>
      <point x="88" y="-10"/>
      <point x="102" y="4"/>
      <point x="102" y="16" type="qcurve" smooth="yes"/>
      <point x="102" y="27"/>
      <point x="89" y="41"/>
      <point x="76" y="41" type="qcurve" smooth="yes"/>
      <point x="64" y="41"/>
      <point x="50" y="27"/>
    </contour>
    <contour>
      <point x="50" y="896" type="qcurve" smooth="yes"/>
      <point x="50" y="884"/>
      <point x="62" y="870"/>
      <point x="75" y="870" type="qcurve" smooth="yes"/>
      <point x="88" y="870"/>
      <point x="102" y="884"/>
      <point x="102" y="896" type="qcurve" smooth="yes"/>
      <point x="102" y="907"/>
      <point x="89" y="921"/>
      <point x="76" y="921" type="qcurve" smooth="yes"/>
      <point x="64" y="921"/>
      <point x="50" y="907"/>
    </contour>
  </outline>
</glyph>
<glyph name="less" format="2">
  <advance width="551"/>
  <unicode hex="003C"/>
  <outline>
    <contour>
      <point x="481" y="316" type="line"/>
      <point x="481" y="325" type="line"/>
      <point x="77" y="674" type="line"/>
      <point x="481" y="1024" type="line"/>
      <point x="481" y="1033" type="line"/>
      <point x="70" y="676" type="line"/>
      <point x="70" y="672" type="line"/>
    </contour>
  </outline>
</glyph>
<glyph name="equal" format="2">
  <advance width="622"/>
  <unicode hex="003D"/>
  <outline>
    <contour>
      <point x="70" y="540" type="line"/>
      <point x="552" y="540" type="line"/>
      <point x="552" y="548" type="line"/>
      <point x="70" y="548" type="line"/>
    </contour>
    <contour>
      <point x="70" y="795" type="line"/>
      <point x="552" y="795" type="line"/>
      <point x="552" y="803" type="line"/>
      <point x="70" y="803" type="line"/>
    </contour>
  </outline>
</glyph>
<glyph name="at" format="2">
  <advance width="1923"/>
  <unicode hex="0040"/>
  <outline>
    <contour>
      <point x="619" y="400" type="qcurve" smooth="yes"/>
      <point x="619" y="220"/>
      <point x="751" y="0"/>
      <point x="863" y="0" type="qcurve" smooth="yes"/>
      <point x="937" y="0"/>
      <point x="1059" y="102"/>
      <point x="1090" y="189" type="qcurve"/>
      <point x="1121" y="101"/>
      <point x="1266" y="0"/>
      <point x="1372" y="0" type="qcurve" smooth="yes"/>
      <point x="1555" y="0"/>
      <point x="1809" y="360"/>
      <point x="1809" y="650" type="qcurve" smooth="yes"/>
      <point x="1809" y="1000"/>
      <point x="1372" y="1486"/>
      <point x="1003" y="1486" type="qcurve" smooth="yes"/>
      <point x="635" y="1486"/>
      <point x="114" y="880"/>
      <point x="114" y="460" type="qcurve" smooth="yes"/>
      <point x="114" y="40"/>
      <point x="577" y="-446"/>
      <point x="908" y="-446" type="qcurve" smooth="yes"/>
      <point x="1042" y="-446"/>
      <point x="1225" y="-400"/>
      <point x="1293" y="-356" type="qcurve"/>
      <point x="1293" y="-266" type="line"/>
      <point x="1228" y="-302"/>
      <point x="1042" y="-356"/>
      <point x="908" y="-356" type="qcurve" smooth="yes"/>
      <point x="614" y="-356"/>
      <point x="221" y="69"/>
      <point x="221" y="460" type="qcurve" smooth="yes"/>
      <point x="221" y="847"/>
      <point x="671" y="1396"/>
      <point x="1003" y="1396" type="qcurve" smooth="yes"/>
      <point x="1337" y="1396"/>
      <point x="1705" y="946"/>
      <point x="1705" y="650" type="qcurve" smooth="yes"/>
      <point x="1705" y="398"/>
      <point x="1523" y="87"/>
      <point x="1380" y="87" type="qcurve" smooth="yes"/>
      <point x="1279" y="87"/>
      <point x="1157" y="200"/>
      <point x="1186" y="350" type="qcurve" smooth="yes"/>
      <point x="1302" y="946" type="line"/>
      <point x="1248" y="946" type="line"/>
      <point x="1218" y="979"/>
      <point x="1102" y="1052"/>
      <point x="1036" y="1052" type="qcurve" smooth="yes"/>
      <point x="863" y="1052"/>
      <point x="619" y="680"/>
    </contour>
    <contour>
      <point x="719" y="400" type="qcurve" smooth="yes"/>
      <point x="719" y="642"/>
      <point x="903" y="963"/>
      <point x="1044" y="963" type="qcurve" smooth="yes"/>
      <point x="1085" y="963"/>
      <point x="1165" y="929"/>
      <point x="1192" y="904" type="qcurve"/>
      <point x="1093" y="396" type="line" smooth="yes"/>
      <point x="1060" y="227"/>
      <point x="951" y="88"/>
      <point x="879" y="88" type="qcurve" smooth="yes"/>
      <point x="801" y="88"/>
      <point x="719" y="247"/>
    </contour>
  </outline>
</glyph>
<glyph name="A" format="2">
  <advance width="170"/>
  <unicode hex="0041"/>
  <anchor x="83.0" y="1432.0" name="top"/>
  <outline>
    <contour>
      <point x="0" y="0" type="line"/>
      <point x="6" y="0" type="line"/>
      <point x="76" y="1304" type="line" smooth="yes"/>
      <point x="79" y="1359"/>
      <point x="81" y="1401"/>
      <point x="82" y="1423" type="qcurve"/>
      <point x="83" y="1423" type="line"/>
      <point x="84" y="1401"/>
      <point x="86" y="1359"/>
      <point x="89" y="1304" type="qcurve" smooth="yes"/>
      <point x="164" y="0" type="line"/>
      <point x="170" y="0" type="line"/>
      <point x="85" y="1461" type="line"/>
      <point x="80" y="1461" type="line"/>
    </contour>
    <contour>
      <point x="26" y="429" type="line"/>
      <point x="142" y="429" type="line"/>
      <point x="142" y="435" type="line"/>
      <point x="27" y="435" type="line"/>
    </contour>
  </outline>
</glyph>
<glyph name="E" format="2">
  <advance width="193"/>
  <unicode hex="0045"/>
  <outline>
    <contour>
      <point x="54" y="0" type="line"/>
      <point x="190" y="0" type="line"/>
      <point x="190" y="6" type="line"/>
      <point x="60" y="6" type="line"/>
      <point x="60" y="753" type="line"/>
      <point x="162" y="753" type="line"/>
      <point x="162" y="759" type="line"/>
      <point x="60" y="759" type="line"/>
      <point x="60" y="1450" type="line"/>
      <point x="180" y="1450" type="line"/>
      <point x="180" y="1456" type="line"/>
      <point x="54" y="1456" type="line"/>
    </contour>
  </outline>
</glyph>
<glyph name="bracketleft" format="2">
  <advance width="331"/>
  <unicode hex="005B"/>
  <outline>
    <contour>
      <point x="70" y="-310" type="line"/>
      <point x="281" y="-310" type="line"/>
      <point x="281" y="-304" type="line"/>
      <point x="76" y="-304" type="line"/>
      <point x="76" y="1450" type="line"/>
      <point x="281" y="1450" type="line"/>
      <point x="281" y="1456" type="line"/>
      <point x="70" y="1456" type="line"/>
    </contour>
  </outline>
</glyph>
<glyph name="asciicircum" format="2">
  <advance width="704"/>
  <unicode hex="005E"/>
  <outline>
    <contour>
      <point x="70" y="757" type="line"/>
      <point x="77" y="757" type="line"/>
      <point x="351" y="1411" type="line"/>
      <point x="627" y="757" type="line"/>
      <point x="634" y="757" type="line"/>
      <point x="354" y="1419" type="line"/>
      <point x="348" y="1419" type="line"/>
    </contour>
  </outline>
</glyph>
<glyph name="e" format="2">
  <advance width="178"/>
  <unicode hex="0065"/>
  <anchor x="99.0" y="914.0" name="top"/>
  <outline>
    <contour>
      <point x="40" y="122" type="line" smooth="yes"/>
      <point x="40" y="56"/>
      <point x="67" y="-4"/>
      <point x="100" y="-4" type="qcurve" smooth="yes"/>
      <point x="133" y="-4"/>
      <point x="158" y="75"/>
      <point x="158" y="144" type="qcurve"/>
      <point x="152" y="144" type="line"/>
      <point x="152" y="77"/>
      <point x="129" y="2"/>
      <point x="100" y="2" type="qcurve" smooth="yes"/>
      <point x="72" y="2"/>
      <point x="46" y="59"/>
      <point x="46" y="118" type="qcurve" smooth="yes"/>
      <point x="46" y="781" type="line" smooth="yes"/>
      <point x="46.0" y="855"/>
      <point x="69" y="915"/>
      <point x="100" y="915" type="qcurve" smooth="yes"/>
      <point x="130" y="915"/>
      <point x="152" y="855"/>
      <point x="152" y="796" type="qcurve" smooth="yes"/>
      <point x="152" y="516" type="line"/>
      <point x="42" y="516" type="line"/>
      <point x="42" y="510" type="line"/>
      <point x="158" y="510" type="line"/>
      <point x="158" y="801" type="line" smooth="yes"/>
      <point x="158" y="858"/>
      <point x="133" y="921"/>
      <point x="100" y="921.0" type="qcurve" smooth="yes"/>
      <point x="67" y="921"/>
      <point x="40.0" y="857"/>
      <point x="40" y="785" type="qcurve" smooth="yes"/>
    </contour>
  </outline>
</glyph>
<glyph name="f" format="2">
  <advance width="110"/>
  <unicode hex="0066"/>
  <outline>
    <contour>
      <point x="54" y="0" type="line"/>
      <point x="60" y="0" type="line"/>
      <point x="60" y="910" type="line"/>
      <point x="60" y="912" type="line"/>
      <point x="60" y="1352" type="line" smooth="yes"/>
      <point x="60" y="1421"/>
      <point x="100" y="1469"/>
      <point x="129" y="1469" type="qcurve" smooth="yes"/>
      <point x="139" y="1469"/>
      <point x="156" y="1467"/>
      <point x="161" y="1465" type="qcurve"/>
      <point x="161" y="1471" type="line"/>
      <point x="155" y="1473"/>
      <point x="140" y="1475"/>
      <point x="129" y="1475" type="qcurve" smooth="yes"/>
      <point x="98" y="1475"/>
      <point x="54" y="1423"/>
      <point x="54" y="1359" type="qcurve" smooth="yes"/>
    </contour>
    <contour>
      <point x="8" y="908" type="line"/>
      <point x="111" y="908" type="line"/>
      <point x="111" y="914" type="line"/>
      <point x="58" y="914" type="line"/>
      <point x="56" y="914" type="line"/>
      <point x="8" y="914" type="line"/>
    </contour>
  </outline>
</glyph>
<glyph name="o" format="2">
  <advance width="209"/>
  <unicode hex="006F"/>
  <outline>
    <contour>
      <point x="40" y="122" type="line" smooth="yes"/>
      <point x="40" y="57"/>
      <point x="72" y="-4"/>
      <point x="104" y="-4" type="qcurve" smooth="yes"/>
      <point x="137" y="-4"/>
      <point x="169" y="58"/>
      <point x="169" y="122" type="qcurve" smooth="yes"/>
      <point x="169" y="781" type="line" smooth="yes"/>
      <point x="169" y="860"/>
      <point x="141" y="921"/>
      <point x="104" y="921" type="qcurve" smooth="yes"/>
      <point x="69" y="921"/>
      <point x="40" y="860"/>
      <point x="40" y="782" type="qcurve" smooth="yes"/>
    </contour>
    <contour>
      <point x="46" y="784" type="line" smooth="yes"/>
      <point x="46" y="856"/>
      <point x="72" y="915"/>
      <point x="104" y="915" type="qcurve" smooth="yes"/>
      <point x="138" y="915"/>
      <point x="163" y="857"/>
      <point x="163" y="784" type="qcurve" smooth="yes"/>
      <point x="163" y="118" type="line" smooth="yes"/>
      <point x="163" y="59"/>
      <point x="135" y="2"/>
      <point x="105" y="2" type="qcurve" smooth="yes"/>
      <point x="75" y="2"/>
      <point x="46" y="59"/>
      <point x="46" y="118" type="qcurve" smooth="yes"/>
    </contour>
  </outline>
</glyph>
<glyph name="y" format="2">
  <advance width="164"/>
  <unicode hex="0079"/>
  <anchor x="85" y="914" name="top"/>
  <outline>
    <contour>
      <point x="-150" y="-390" type="line"/>
      <point x="-141" y="-394"/>
      <point x="-103" y="-404"/>
      <point x="-81" y="-404" type="qcurve" smooth="yes"/>
      <point x="-3" y="-404"/>
      <point x="70" y="-231"/>
      <point x="81" y="-94" type="qcurve" smooth="yes"/>
      <point x="164" y="914" type="line"/>
      <point x="158" y="914" type="line"/>
      <point x="97" y="163" type="line" smooth="yes"/>
      <point x="94" y="123"/>
      <point x="88" y="35"/>
      <point x="87" y="23" type="qcurve"/>
      <point x="86" y="23" type="line"/>
      <point x="85" y="35"/>
      <point x="78" y="123"/>
      <point x="75" y="163" type="qcurve" smooth="yes"/>
      <point x="16" y="914" type="line"/>
      <point x="10" y="914" type="line"/>
      <point x="83" y="9" type="line"/>
      <point x="75" y="-92" type="line" smooth="yes"/>
      <point x="64" y="-226"/>
      <point x="-6" y="-398"/>
      <point x="-81" y="-398" type="qcurve" smooth="yes"/>
      <point x="-101" y="-398"/>
      <point x="-140" y="-387"/>
      <point x="-146" y="-383" type="qcurve"/>
    </contour>
  </outline>
</glyph>
<glyph name="multiply" format="2">
  <advance width="1170"/>
  <unicode hex="00D7"/>
  <outline>
    <contour>
      <point x="180" y="324" type="line"/>
      <point x="248" y="265" type="line"/>
      <point x="990" y="1026" type="line"/>
      <point x="922" y="1085" type="line"/>
    </contour>
    <contour>
      <point x="180" y="1024" type="line"/>
      <point x="921" y="265" type="line"/>
      <point x="990" y="326" type="line"/>
      <point x="249" y="1085" type="line"/>
    </contour>
  </outline>
</glyph>
<glyph name="fl" format="2">
  <advance width="900"/>
  <unicode hex="FB02"/>
  <outline>
    <contour>
      <point x="154" y="0" type="line"/>
      <point x="261" y="0" type="line"/>
      <point x="261" y="872" type="line"/>
      <point x="261" y="883" type="line"/>
      <point x="261" y="1140" type="line" smooth="yes"/>
      <point x="261" y="1274"/>
      <point x="363" y="1385"/>
      <point x="464" y="1385" type="qcurve" smooth="yes"/>
      <point x="533" y="1385"/>
      <point x="656" y="1349"/>
      <point x="703" y="1327" type="qcurve"/>
      <point x="725" y="1418" type="line"/>
      <point x="667" y="1443"/>
      <point x="527" y="1478"/>
      <point x="455" y="1478" type="qcurve" smooth="yes"/>
      <point x="315" y="1478"/>
      <point x="154" y="1306"/>
      <point x="154" y="1140" type="qcurve" smooth="yes"/>
    </contour>
    <contour>
      <point x="-2" y="822" type="line"/>
      <point x="505" y="822" type="line"/>
      <point x="505" y="914" type="line"/>
      <point x="221" y="914" type="line"/>
      <point x="205" y="914" type="line"/>
      <point x="-2" y="914" type="line"/>
    </contour>
    <contour>
      <point x="674" y="0" type="line"/>
      <point x="782" y="0" type="line"/>
      <point x="782" y="1418" type="line"/>
      <point x="674" y="1418" type="line"/>
    </contour>
  </outline>
</glyph>
<glyph name="f_f_l" format="2">
  <advance width="1345"/>
  <unicode hex="FB04"/>
  <outline>
    <contour>
      <point x="154" y="0" type="line"/>
      <point x="261" y="0" type="line"/>
      <point x="261" y="872" type="line"/>
      <point x="261" y="883" type="line"/>
      <point x="261" y="1136" type="line" smooth="yes"/>
      <point x="261" y="1267"/>
      <point x="361" y="1383"/>
      <point x="460" y="1383" type="qcurve" smooth="yes"/>
      <point x="509" y="1383"/>
      <point x="591" y="1353"/>
      <point x="631" y="1334" type="qcurve"/>
      <point x="655" y="1420" type="line"/>
      <point x="607" y="1443"/>
      <point x="505" y="1478"/>
      <point x="452" y="1478" type="qcurve" smooth="yes"/>
      <point x="314" y="1478"/>
      <point x="154" y="1307"/>
      <point x="154" y="1136" type="qcurve" smooth="yes"/>
    </contour>
    <contour>
      <point x="-3" y="822" type="line"/>
      <point x="503" y="822" type="line"/>
      <point x="503" y="914" type="line"/>
      <point x="218" y="914" type="line"/>
      <point x="202" y="914" type="line"/>
      <point x="-3" y="914" type="line"/>
    </contour>
    <contour>
      <point x="636" y="0" type="line"/>
      <point x="744" y="0" type="line"/>
      <point x="744" y="872" type="line"/>
      <point x="744" y="883" type="line"/>
      <point x="744" y="1140" type="line" smooth="yes"/>
      <point x="744" y="1271"/>
      <point x="845" y="1383"/>
      <point x="947" y="1383" type="qcurve" smooth="yes"/>
      <point x="1014" y="1383"/>
      <point x="1110" y="1354"/>
      <point x="1157" y="1332" type="qcurve"/>
      <point x="1179" y="1418" type="line"/>
      <point x="1120" y="1444"/>
      <point x="1009" y="1478"/>
      <point x="938" y="1478" type="qcurve" smooth="yes"/>
      <point x="797" y="1478"/>
      <point x="636" y="1311"/>
      <point x="636" y="1140" type="qcurve" smooth="yes"/>
    </contour>
    <contour>
      <point x="462" y="822" type="line"/>
      <point x="975" y="822" type="line"/>
      <point x="975" y="914" type="line"/>
      <point x="691" y="914" type="line"/>
      <point x="676" y="914" type="line"/>
      <point x="462" y="914" type="line"/>
    </contour>
    <contour>
      <point x="1120" y="0" type="line"/>
      <point x="1227" y="0" type="line"/>
      <point x="1227" y="1418" type="line"/>
      <point x="1120" y="1418" type="line"/>
    </contour>
  </outline>
</glyph>
